<?xml version="1.0" encoding="UTF-8"?>
<svg width="256" height="256" version="1.1" viewBox="0 0 67.73333 67.73333" xmlns="http://www.w3.org/2000/svg">
<g transform="translate(0 -229.27)" fill="#00ae4d">
<path d="m25.776 230.7c-1.3914 0.28177-1.8043 0.37562-2.311 1.3515s-8.0138 18.937-8.0138 18.937l-5.5928 13.175c-0.14803 0.34873-1.2521 1.8553 1.2762 5.818 2.3272 3.6475 5.7804 10.472 5.7804 10.472s0.97592 2.0644 4.0914 1.2011 16.252-9.1346 22.484-12.912c0.25487-0.1545-0.36966-0.097-0.46949-0.0896-6.9002 0.50965-20.588 0.052-20.588 0.052l10.623-24.923 2.2897-8.4455-2.102-4.2415z"/>
<path d="m25.776 230.7s11.647 0.11142 15.155 0.11095c0.43105-5e-5 1.0745 0.55639 1.2099 0.74889 0.46 0.65391 0.75788 1.2558 0.8246 1.4135 4.6826 11.066 20.93 48.736 20.93 48.736l-14.576 0.0563s-16.271-37.94-20.118-46.872c-0.35604-0.8265-1.1818-4.074-3.4239-4.1935" fill-opacity=".99485"/>
<g transform="matrix(.28088 0 0 .28088 -2.4905 215.65)" stroke="#00ae4d" stroke-width="2" aria-label="AUTODESK">
<path d="m26.607 255.87-5.6872 15.422h11.395zm-2.3662-4.1305h4.7531l11.81 30.989h-4.3588l-2.8228-7.9496h-13.969l-2.8228 7.9496h-4.421z"/>
<path d="m44.852 251.74h4.2135v18.826q0 4.9815 1.8058 7.1816 1.8058 2.1794 5.8532 2.1794 4.0267 0 5.8325-2.1794 1.8058-2.2001 1.8058-7.1816v-18.826h4.2135v19.345q0 6.0608-3.0096 9.1534-2.9889 3.0927-8.8421 3.0927-5.874 0-8.8836-3.0927-2.9889-3.0926-2.9889-9.1534z"/>
<path d="m72.146 251.74h26.215v3.5285h-11.001v27.46h-4.2135v-27.46h-11.001z"/>
<path d="m114.99 254.58q-4.5663 0-7.2646 3.404-2.6775 3.404-2.6775 9.278 0 5.8532 2.6775 9.2572 2.6983 3.404 7.2646 3.404 4.5663 0 7.2231-3.404 2.6775-3.404 2.6775-9.2572 0-5.874-2.6775-9.278-2.6568-3.404-7.2231-3.404zm0-3.404q6.5174 0 10.42 4.3795 3.9021 4.3588 3.9021 11.706 0 7.3269-3.9021 11.706-3.9021 4.3588-10.42 4.3588-6.5382 0-10.461-4.3588-3.9021-4.3588-3.9021-11.706t3.9021-11.706q3.9229-4.3795 10.461-4.3795z"/>
<path d="m140.06 255.18v24.098h5.0645q6.4136 0 9.3817-2.9058 2.9889-2.9058 2.9889-9.1742 0-6.2268-2.9889-9.1119-2.9681-2.9058-9.3817-2.9058zm-4.1927-3.4455h8.6138q9.0081 0 13.222 3.7568 4.2135 3.7361 4.2135 11.706 0 8.0118-4.2342 11.769-4.2342 3.7568-13.201 3.7568h-8.6138z"/>
<path d="m168.6 251.74h19.594v3.5285h-15.401v9.1742h14.758v3.5285h-14.758v11.229h15.775v3.5285h-19.967z"/>
<path d="m214.03 252.75v4.0889q-2.387-1.1416-4.5041-1.702-2.1171-0.56042-4.0889-0.56042-3.4248 0-5.2928 1.3284-1.8473 1.3284-1.8473 3.7776 0 2.0548 1.2246 3.1134 1.2454 1.0378 4.6909 1.6812l2.5322 0.5189q4.6909 0.89251 6.9118 3.1549 2.2416 2.2416 2.2416 6.0193 0 4.5041-3.0304 6.8287-3.0096 2.3247-8.8421 2.3247-2.2001 0-4.6909-0.49815-2.47-0.49815-5.1267-1.4737v-4.3173q2.553 1.4322 5.0022 2.1586 2.4492 0.72646 4.8154 0.72646 3.5908 0 5.5419-1.4114 1.9511-1.4114 1.9511-4.0267 0-2.2832-1.4114-3.57-1.3906-1.2869-4.5871-1.9303l-2.553-0.49814q-4.6909-0.93403-6.7872-2.9266t-2.0964-5.5419q0-4.1097 2.8851-6.4759 2.9058-2.3662 7.9911-2.3662 2.1794 0 4.4418 0.39436 2.2624 0.39437 4.6286 1.1831z"/>
<path d="m222.44 251.74h4.1927v13.097l13.907-13.097h5.3966l-15.38 14.446 16.48 16.543h-5.5211l-14.882-14.924v14.924h-4.1927z"/>
</g>
</g>
</svg>
