<?xml version="1.0" encoding="UTF-8" standalone="no"?>
<svg
   xmlns:dc="http://purl.org/dc/elements/1.1/"
   xmlns:cc="http://creativecommons.org/ns#"
   xmlns:rdf="http://www.w3.org/1999/02/22-rdf-syntax-ns#"
   xmlns:svg="http://www.w3.org/2000/svg"
   xmlns="http://www.w3.org/2000/svg"
   xmlns:sodipodi="http://sodipodi.sourceforge.net/DTD/sodipodi-0.dtd"
   xmlns:inkscape="http://www.inkscape.org/namespaces/inkscape"
   width="256"
   height="128"
   viewBox="0 0 256 128"
   version="1.1"
   id="svg16"
   sodipodi:docname="latex.svg"
   inkscape:version="0.92.5 (2060ec1f9f, 2020-04-08)">
  <metadata
     id="metadata22">
    <rdf:RDF>
      <cc:Work
         rdf:about="">
        <dc:format>image/svg+xml</dc:format>
        <dc:type
           rdf:resource="http://purl.org/dc/dcmitype/StillImage" />
        <dc:title></dc:title>
      </cc:Work>
    </rdf:RDF>
  </metadata>
  <defs
     id="defs20" />
  <sodipodi:namedview
     pagecolor="#ffffff"
     bordercolor="#666666"
     borderopacity="1"
     objecttolerance="10"
     gridtolerance="10"
     guidetolerance="10"
     inkscape:pageopacity="0"
     inkscape:pageshadow="2"
     inkscape:window-width="1366"
     inkscape:window-height="704"
     id="namedview18"
     showgrid="false"
     inkscape:zoom="2.1360282"
     inkscape:cx="168.20265"
     inkscape:cy="40.156578"
     inkscape:window-x="0"
     inkscape:window-y="27"
     inkscape:window-maximized="1"
     inkscape:current-layer="g14" />
  <g
     id="g14"
     style="clip-rule:evenodd;fill-rule:evenodd"
     transform="translate(0,-301.01778)">
    <path
       d="m 63.631134,380.48644 1.755027,0.38209 -6.150438,19.50062 H 3.5895161 v -1.95462 h 2.713093 c 3.0395766,0 5.2094799,-0.99371 6.5125629,-2.96544 0.742787,-1.13913 1.103487,-3.76526 1.103487,-7.85272 v -46.38491 c 0,-4.48522 -0.489013,-7.28956 -1.484147,-8.41158 -1.374367,-1.55543 -3.4188099,-2.33386 -6.1319029,-2.33386 h -2.713093 v -1.97173 H 36.133801 v 1.97173 c -3.816579,-0.0356 -6.49403,0.30795 -8.032352,1.04931 -1.536897,0.74136 -2.586207,1.68232 -3.14793,2.82145 -0.560297,1.12059 -0.849712,3.83368 -0.849712,8.10506 v 45.15168 c 0,2.93265 0.289415,4.94003 0.849712,6.04209 0.416303,0.74278 1.067844,1.28312 1.954625,1.64525 0.885355,0.34501 3.635516,0.52608 8.266166,0.52608 h 5.246548 c 5.517431,0 9.388186,-0.39777 11.613692,-1.21469 2.225506,-0.81265 4.251415,-2.26115 6.096262,-4.32128 1.827737,-2.06012 3.672584,-5.33494 5.500322,-9.78453 z"
       id="path4"
       inkscape:connector-curvature="0"
       style="fill:#00ae4d;fill-opacity:1;stroke-width:1.42569256" />
    <path
       d="M 72.203823,366.99226 H 50.544701 l -3.788065,8.82932 c -0.943808,2.16848 -1.407158,3.78949 -1.407158,4.87302 0,0.84686 0.407748,1.59249 1.210413,2.23833 0.816921,0.64869 2.561969,1.07212 5.266508,1.26744 v 1.52264 H 34.20769 v -1.52264 c 2.338136,-0.42058 3.845093,-0.95521 4.535128,-1.61816 1.408584,-1.31163 2.958312,-3.99907 4.662015,-8.04233 l 19.687389,-46.03704 h 1.437098 l 19.476386,46.53033 c 1.563985,3.74529 2.9854,6.16755 4.267098,7.28101 1.281698,1.11062 3.069516,1.74648 5.350624,1.88477 v 1.52264 H 71.542302 v -1.52264 c 2.225506,-0.11121 3.732463,-0.49329 4.520871,-1.12487 0.788408,-0.62161 1.183325,-1.39576 1.183325,-2.31105 0,-1.20899 -0.564575,-3.11086 -1.662358,-5.73129 z m -1.154811,-3.05668 -9.492261,-22.60293 -9.731778,22.60293 z"
       id="path6"
       inkscape:connector-curvature="0"
       style="fill:#00ae4d;fill-opacity:1;stroke-width:1.42569256" />
    <path
       d="m 140.42037,328.01668 0.80123,16.99568 h -2.04158 c -0.38494,-2.9911 -0.91387,-5.12394 -1.60676,-6.41847 -1.09493,-2.06012 -2.57052,-3.57421 -4.39398,-4.55936 -1.84057,-0.98373 -4.24857,-1.47702 -7.23825,-1.47702 H 115.7288 v 55.36392 c 0,4.44959 0.49186,7.21971 1.44137,8.3346 1.34871,1.49555 3.4459,2.24119 6.25452,2.24119 h 2.51777 v 1.96888 H 95.214501 v -1.96888 h 2.57195 c 3.062389,0 5.233729,-0.92955 6.509719,-2.79008 0.78413,-1.13058 1.18618,-3.73674 1.18618,-7.78571 v -55.36392 h -8.716695 c -3.373189,0 -5.781184,0.2552 -7.202599,0.74706 -1.859103,0.67578 -3.445899,1.98884 -4.758962,3.90212 -1.313063,1.93182 -2.097194,4.5223 -2.350967,7.80567 h -2.024483 l 0.856841,-16.99568 z"
       id="path8"
       inkscape:connector-curvature="0"
       style="fill:#00ae4d;fill-opacity:1;stroke-width:1.42569256" />
    <path
       d="m 149.21261,351.7787 v 27.45599 h 15.26774 c 3.97056,0 6.61094,-0.59594 7.93826,-1.78497 1.78497,-1.57397 2.76442,-4.33553 2.97399,-8.30609 h 1.88762 v 24.18688 h -1.88762 c -0.47333,-3.37462 -0.96091,-5.54452 -1.43424,-6.50686 -0.61305,-1.18618 -1.62672,-2.13284 -3.0239,-2.81575 -1.40003,-0.68005 -3.54997,-1.03077 -6.45411,-1.03077 h -15.26774 v 22.90803 c 0,3.07664 0.14257,4.95143 0.40347,5.61437 0.27801,0.6658 0.75134,1.18903 1.43425,1.5925 0.68291,0.38494 1.99312,0.57598 3.89784,0.57598 h 11.78763 c 3.9178,0 6.78629,-0.26232 8.55415,-0.8212 1.78212,-0.54318 3.47727,-1.6096 5.12394,-3.21921 2.11573,-2.11573 4.28278,-5.31641 6.50401,-9.58493 h 2.0473 l -5.98078,17.42054 h -53.54901 v -1.88762 h 2.46645 a 9.7474602,9.7474602 0 0 0 4.65061,-1.18903 c 1.10206,-0.54319 1.83772,-1.36439 2.23833,-2.45076 0.38494,-1.09921 0.57598,-3.33898 0.57598,-6.71359 v -45.13743 c 0,-4.40681 -0.43483,-7.11705 -1.32874,-8.14926 -1.22467,-1.36438 -3.26911,-2.04729 -6.13761,-2.04729 h -2.46645 v -1.90615 h 53.54901 l 0.76845,15.21499 h -2.01023 c -0.71855,-3.65405 -1.5041,-6.15614 -2.37805,-7.5191 -0.87395,-1.36439 -2.1528,-2.4137 -3.86506,-3.13082 -1.36438,-0.50612 -3.77808,-0.76845 -7.22255,-0.76845 z"
       id="path10"
       inkscape:connector-curvature="0"
       style="fill:#00ae4d;fill-opacity:1;stroke-width:1.42569256" />
    <path
       d="m 221.31131,360.38133 15.4431,23.01068 c 4.27138,6.37142 7.44069,10.39187 9.52363,12.07704 2.06298,1.68231 4.6891,2.60616 7.8741,2.78723 v 1.95462 h -30.86625 v -1.95462 c 2.04445,-0.0356 3.56709,-0.25378 4.56079,-0.65155 a 4.3497881,4.3497881 0 0 0 1.82917,-1.4485 c 0.47048,-0.65154 0.70429,-1.32304 0.70429,-1.99312 a 6.8433244,6.8433244 0 0 0 -0.47048,-2.44221 c -0.25377,-0.59879 -1.23037,-2.15565 -2.91269,-4.66914 l -12.20535,-18.44989 -15.06102,19.2996 c -1.5925,2.06298 -2.55341,3.42166 -2.85994,4.11027 -0.32648,0.68719 -0.49044,1.41144 -0.49044,2.1528 0,1.14198 0.49044,2.06583 1.4314,2.80719 0.95806,0.74278 2.78723,1.17762 5.4661,1.28597 v 1.95463 h -25.50991 v -1.95463 c 1.81205,-0.18106 3.35037,-0.56315 4.67199,-1.12202 a 26.989786,26.989786 0 0 0 6.24596,-3.7125 c 1.99027,-1.55686 4.25427,-3.94917 6.78915,-7.16981 l 16.98285,-21.41675 -14.15998,-20.74811 c -3.8565,-5.61295 -7.13131,-9.30549 -9.81304,-11.04341 -2.69599,-1.75646 -5.79116,-2.67888 -9.28696,-2.78866 v -1.97316 h 33.25855 v 1.97316 c -2.82572,0.10978 -4.76181,0.56173 -5.81112,1.3758 -1.03363,0.81407 -1.55686,1.72081 -1.55686,2.69741 0,1.32161 0.84972,3.22206 2.53346,5.73841 l 11.04341,16.49384 12.78134,-16.18589 c 1.48414,-1.90045 2.38946,-3.20496 2.73448,-3.91068 0.32648,-0.72425 0.50612,-1.4485 0.50612,-2.19129 0,-0.74278 -0.21671,-1.39432 -0.65154,-1.95605 a 4.1345085,4.1345085 0 0 0 -2.01023,-1.55685 c -0.8155,-0.30795 -2.49781,-0.47048 -5.03127,-0.50755 v -1.97316 h 25.50707 v 1.97316 c -2.00738,0.10978 -3.65548,0.4163 -4.94003,0.94238 -1.90187,0.81407 -3.65833,1.91899 -5.25225,3.29478 -1.59392,1.37579 -3.83654,3.92921 -6.7364,7.64029 z"
       id="path12"
       inkscape:connector-curvature="0"
       style="fill:#00ae4d;fill-opacity:1;stroke-width:1.42569256" />
  </g>
</svg>
